# xmcd
#
# Track frame offsets:
#	150
#	10065
#	23000
#	35420
#	47830
#	60895
#	76425
#	87307
#	99460
#	111465
#
# Disc length: 1643
#
# Revision: 2
# Processed by: cddbd v1.5.1PL0 Copyright (c) Steve Scherf et al.
# Submitted via: CDex 1.51
# Normalized: r0:DSETVAR1,TDELIM( - );r1:TSWAP
#
DISCID=7006690a
DTITLE=Various Artist - 40 Miles of Bad Roads
DYEAR=1900
DGENRE=Country
TTITLE0=Duane Eddy - Forty Miles of Bad Road
TTITLE1=Red Sovine - Truck Driver's Prayer
TTITLE2=Coleman Wilson - Passing Zone Blues
TTITLE3=Red Sovine - Freightliner Fever
TTITLE4=Billy Walker - Cross the Brazos at Waco
TTITLE5=Red Sovine - Phantom 309
TTITLE6=Jimmy Griggs - Overloaded Diesel
TTITLE7=Jimmy Martin - Widow Maker
TTITLE8=The Willis Brothers - Diesel Smoke on Danger Road
TTITLE9=Jack Scott - Burning Bridges
EXTD=
EXTT0=
EXTT1=
EXTT2=
EXTT3=
EXTT4=
EXTT5=
EXTT6=
EXTT7=
EXTT8=
EXTT9=
PLAYORDER=
